<?xml version="1.0" standalone="no"?>
<!DOCTYPE svg PUBLIC "-//W3C//DTD SVG 20010904//EN"
 "http://www.w3.org/TR/2001/REC-SVG-20010904/DTD/svg10.dtd">
<svg version="1.0" xmlns="http://www.w3.org/2000/svg"
 width="640.000000pt" height="360.000000pt" viewBox="0 0 640.000000 360.000000"
 preserveAspectRatio="xMidYMid meet">

<g transform="translate(0.000000,360.000000) scale(0.100000,-0.100000)"
fill="#000000" stroke="none">
<path d="M655 3573 c-19 -90 -40 -163 -46 -163 -5 0 -17 -20 -28 -45 -20 -44
-20 -98 -1 -110 5 -3 5 -15 2 -28 -6 -22 -6 -22 -13 3 -7 25 -7 24 -8 -4 -1
-28 -2 -29 -20 -12 -24 22 -37 15 -49 -27 -19 -62 -23 -89 -12 -82 5 3 10 17
10 30 0 41 16 36 30 -8 8 -23 13 -49 12 -57 -1 -8 5 -1 13 15 8 17 14 36 15
43 0 6 5 12 10 12 6 0 9 -3 9 -7 -3 -20 2 -27 11 -13 8 12 16 8 49 -24 l40
-39 27 32 c14 17 29 29 32 26 3 -3 -8 -19 -24 -36 -28 -30 -28 -31 -10 -45 28
-20 36 -18 38 14 1 15 2 43 4 63 l2 37 -74 4 c-41 2 -79 9 -86 16 -10 10 -6
12 24 8 21 -2 40 0 43 5 8 12 55 12 55 -1 0 -5 9 -10 20 -10 20 0 20 1 3 28
-39 62 -40 62 -80 26 -20 -19 -41 -34 -45 -34 -5 0 -7 18 -6 40 3 42 20 52 37
23 9 -17 11 -17 27 -1 17 17 17 19 -5 49 -12 17 -21 33 -18 35 2 2 14 -9 27
-26 29 -38 39 -38 75 0 16 17 34 30 39 30 6 0 -9 -18 -33 -39 l-45 -39 29 -44
c16 -23 31 -45 32 -47 4 -6 357 -30 362 -25 2 2 14 -9 25 -25 36 -51 171 -210
177 -211 7 0 29 147 49 327 l12 101 -64 99 c-35 54 -73 112 -83 130 l-19 32
-283 1 -282 1 -6 -28z m532 -100 c-3 -10 -5 -2 -5 17 0 19 2 27 5 18 2 -10 2
-26 0 -35z m-12 -110 c-10 -66 -17 -46 -8 23 4 32 9 51 11 40 2 -10 1 -38 -3
-63z m-18 -105 c-3 -8 -6 -5 -6 6 -1 11 2 17 5 13 3 -3 4 -12 1 -19z m-616
-124 l-7 -29 -10 40 c-14 52 -6 78 12 43 8 -16 10 -35 5 -54z"/>
<path d="M526 3392 c-4 -24 -6 -46 -2 -49 8 -8 18 42 14 68 -3 18 -6 13 -12
-19z"/>
<path d="M340 3048 c-15 -95 -16 -98 -38 -98 -16 0 -250 61 -289 75 -10 3 -13
-25 -13 -121 l0 -126 28 3 c15 2 33 0 40 -4 11 -7 17 4 13 26 -2 10 17 9 24
-2 3 -5 1 -12 -5 -16 -21 -13 -7 -22 63 -38 88 -21 93 -21 76 -1 -12 14 -11
16 6 12 11 -2 19 -11 19 -21 -1 -9 2 -17 6 -17 7 0 -8 -95 -25 -166 l-5 -21
-87 17 c-49 10 -103 20 -120 23 l-33 7 0 -128 0 -128 76 -12 c42 -7 80 -9 85
-6 19 12 21 -30 4 -116 -20 -101 -15 -98 -117 -81 l-48 8 0 -133 0 -132 29 -7
c15 -3 34 -5 42 -3 22 5 21 -31 -3 -122 -20 -73 -26 -85 -46 -88 l-22 -3 1
-815 0 -814 108 0 c118 0 131 5 131 56 0 35 4 38 79 49 42 7 44 6 38 -15 -3
-12 -3 -19 0 -16 4 3 15 -1 24 -10 20 -18 21 -17 33 38 7 32 10 33 154 46 96
8 133 19 105 29 -18 6 -16 20 3 27 8 3 12 2 9 -4 -4 -6 1 -17 9 -26 10 -10 16
-11 16 -4 0 7 8 10 20 7 15 -4 20 0 20 13 0 10 3 26 7 36 5 13 3 16 -10 11
-14 -5 -17 -1 -16 21 1 15 5 41 9 57 7 27 8 24 10 -20 l2 -50 9 40 c5 22 22
98 38 170 17 72 32 139 34 150 3 13 5 9 6 -11 0 -17 -3 -44 -9 -60 -13 -38
-59 -311 -67 -394 -3 -36 -10 -67 -14 -68 -16 -6 -9 -20 14 -27 20 -7 21 -7 3
-12 -11 -3 -26 -11 -34 -19 -11 -12 49 -14 417 -14 237 0 431 4 431 8 0 15 52
33 74 25 18 -6 16 -8 -19 -19 -37 -11 -30 -13 83 -13 102 -1 122 1 122 14 0
10 10 15 33 15 21 0 41 8 52 20 10 11 25 20 34 20 14 0 14 2 1 10 -11 7 -3 10
30 9 38 0 42 -2 21 -10 -16 -6 -21 -14 -17 -25 5 -13 1 -15 -20 -10 -17 5 -23
3 -19 -4 3 -5 38 -9 78 -9 40 1 62 4 49 6 -31 6 -22 28 11 28 31 0 58 32 51
61 -3 11 1 26 9 33 8 6 13 20 10 30 -3 12 2 20 15 23 26 7 47 -31 46 -86 0
-60 20 -71 59 -32 13 13 34 29 47 36 18 10 20 14 9 21 -9 5 -9 9 -2 9 6 0 31
21 56 46 25 25 49 45 53 44 5 -1 10 3 12 9 2 6 -8 11 -22 11 -14 0 -26 5 -26
10 0 6 9 10 20 10 29 0 25 11 -16 44 -24 19 -34 34 -31 46 3 13 -2 20 -20 25
-13 3 -32 19 -41 35 -9 17 -23 30 -29 30 -7 0 -13 5 -13 11 0 6 -7 9 -15 5
-18 -7 -20 5 -2 23 10 11 8 13 -10 8 -13 -3 -26 -1 -29 4 -3 5 9 9 25 9 17 0
31 5 31 10 0 6 -18 10 -40 10 -22 0 -40 4 -40 9 0 5 9 7 19 4 16 -4 20 1 23
29 2 22 10 36 25 43 30 13 46 82 29 131 -9 30 14 37 56 16 42 -21 108 -9 108
19 0 13 5 16 17 12 14 -5 12 0 -6 26 -13 18 -20 35 -17 38 3 4 6 1 6 -5 0 -6
8 -10 18 -10 9 0 35 -3 57 -7 44 -7 43 -8 74 68 6 15 18 27 26 27 9 0 23 7 31
15 20 19 44 19 44 0 0 -12 4 -13 19 -5 33 17 56 11 79 -20 12 -16 22 -34 22
-40 0 -6 4 -9 8 -6 5 3 7 19 4 36 -3 24 -1 29 11 25 8 -4 17 1 20 9 10 26 27
18 27 -12 0 -15 1 -38 1 -51 0 -12 11 -35 25 -49 28 -31 31 -24 8 21 -12 21
-13 32 -5 35 8 3 8 9 0 23 -5 11 -7 29 -3 41 6 20 7 21 19 4 13 -17 14 -17 34
3 l21 21 10 -25 c6 -15 10 -42 10 -61 0 -24 4 -33 11 -28 8 4 10 26 6 64 -5
47 -4 58 8 56 19 -3 32 -16 15 -16 -10 0 -11 -14 -6 -62 4 -35 4 -60 0 -56
-10 11 -44 -10 -44 -27 0 -19 9 -19 32 2 22 19 24 5 3 -23 -25 -32 -17 -41 40
-49 l55 -6 0 -58 0 -57 -84 4 c-82 4 -84 4 -101 -22 -14 -20 -16 -42 -13 -102
3 -67 7 -79 28 -96 22 -18 34 -19 98 -14 l72 7 0 -33 c1 -30 2 -31 14 -16 19
26 37 23 27 -4 -5 -13 -16 -22 -25 -22 -10 1 -16 -6 -16 -17 0 -10 7 -19 15
-19 18 0 21 -46 4 -52 -13 -4 -21 -136 -8 -143 4 -3 10 13 14 35 9 52 25 52
25 0 l0 -40 65 0 c61 0 65 1 65 23 0 12 9 33 20 47 25 32 25 56 2 63 -24 6
-36 46 -16 53 8 2 20 6 28 8 15 5 10 24 -75 276 -27 80 -52 153 -56 163 -5 16
1 18 58 15 l64 -3 40 -142 c22 -78 43 -144 47 -148 3 -3 9 9 13 27 32 159 59
264 69 270 16 11 88 9 105 -1 13 -8 8 -35 -27 -174 -43 -168 -50 -213 -32
-202 6 3 10 -1 10 -10 0 -9 -9 -19 -19 -22 -27 -7 -35 -43 -10 -43 22 0 41
-31 30 -49 -5 -7 -11 -12 -15 -12 -32 4 -35 1 -24 -24 6 -14 17 -25 24 -25 7
0 16 -5 20 -11 4 -8 -1 -9 -17 -4 -22 7 -22 7 -6 -9 9 -9 22 -16 29 -15 7 1
28 1 45 0 31 -1 32 -2 22 -28 -12 -31 2 -45 41 -41 19 2 24 8 22 23 -12 76 -9
88 14 58 10 -14 15 -15 25 -6 10 10 9 16 -1 28 -7 9 -19 45 -25 81 -14 71 -14
71 59 65 l30 -3 -52 56 c-56 62 -56 60 -72 256 -14 165 -17 151 33 145 l42 -6
-27 16 c-18 10 -32 30 -40 58 -7 23 -20 48 -30 55 -13 10 -15 18 -8 36 5 13 7
26 4 29 -2 2 2 10 11 17 13 11 15 7 15 -30 0 -59 24 -48 28 13 2 33 7 47 18
47 7 0 14 -4 14 -10 0 -17 28 -11 39 7 10 17 12 16 31 -7 11 -14 24 -38 30
-55 9 -28 9 -28 7 13 -1 23 0 42 4 42 3 0 14 -18 24 -41 14 -31 16 -42 6 -48
-6 -4 -11 -23 -10 -42 1 -19 -3 -45 -8 -59 -5 -14 -8 -33 -6 -42 5 -19 34 -17
151 10 85 19 92 15 92 -56 l0 -43 36 7 c26 5 35 3 30 -4 -11 -18 12 -52 34
-52 11 0 20 -7 20 -15 0 -23 -45 -14 -70 13 -24 26 -40 28 -40 6 0 -8 -4 -13
-8 -10 -5 3 -9 -13 -10 -36 -2 -47 -8 -56 -23 -41 -8 8 -8 21 1 47 21 64 11
72 -83 74 -71 1 -142 13 -212 36 -11 3 3 -5 31 -19 53 -26 133 -45 189 -45
l32 0 6 -122 c4 -67 10 -124 13 -127 3 -3 12 3 20 13 12 17 14 18 14 3 0 -9
-16 -35 -36 -57 l-36 -40 34 0 c37 0 75 -30 63 -49 -3 -6 -23 -11 -43 -11 -20
0 -55 -3 -77 -7 -33 -6 -36 -8 -17 -12 13 -3 23 -9 22 -14 -1 -10 65 -67 79
-67 6 0 11 -4 11 -10 0 -5 10 -10 21 -10 20 0 21 -4 15 -40 -7 -42 -5 -45 22
-31 9 4 55 5 102 1 47 -3 87 -5 89 -4 2 2 -2 11 -9 20 -12 14 -10 15 26 8 21
-3 51 -13 66 -20 15 -8 43 -14 63 -14 28 0 35 4 35 19 0 11 9 23 20 26 11 3
20 13 20 21 0 21 34 17 55 -6 10 -11 24 -20 32 -20 26 0 12 -20 -14 -21 l-28
0 23 -12 c18 -8 25 -8 32 3 7 11 14 12 34 2 15 -7 82 -11 173 -11 82 0 161 -3
177 -7 17 -4 31 -2 35 5 5 7 17 8 41 1 19 -6 55 -10 79 -10 38 0 43 -2 38 -20
-5 -20 -4 -21 47 -24 16 -1 31 -7 34 -14 2 -8 27 -12 68 -12 56 0 63 2 58 18
-5 15 -4 15 8 1 10 -12 35 -17 103 -18 l89 -2 -18 20 c-19 21 -19 21 27 21 40
0 47 -3 47 -20 0 -28 46 -28 55 0 l6 20 26 -20 c24 -19 85 -28 81 -12 -1 4 1
17 6 30 6 18 15 22 50 22 23 0 48 -6 55 -12 11 -10 14 -11 18 0 3 6 13 12 24
12 14 0 19 -7 19 -30 0 -27 3 -30 34 -30 21 0 36 6 40 15 7 20 46 20 46 0 0
-12 17 -15 90 -15 l90 0 0 35 c0 32 3 35 29 35 27 0 28 2 27 39 0 22 -4 34 -8
28 -5 -9 -8 -8 -8 3 0 8 -3 26 -6 40 l-5 25 15 -25 c14 -23 15 47 16 714 l0
739 -47 -7 c-133 -18 -147 -18 -180 3 -42 27 -42 41 1 41 35 0 55 13 36 25
-23 14 -6 22 73 34 130 19 117 -1 117 183 l0 160 -27 -7 c-16 -4 -66 -15 -113
-25 -47 -10 -170 -37 -275 -60 -104 -22 -242 -52 -305 -66 -114 -25 -200 -44
-375 -82 -446 -98 -522 -113 -563 -107 -34 5 -43 3 -49 -10 -8 -21 13 -35 53
-35 l31 0 13 -92 c6 -51 16 -109 21 -128 5 -19 9 -50 9 -67 0 -35 15 -45 23
-15 3 10 5 6 6 -11 1 -17 -3 -26 -9 -22 -5 3 -10 2 -10 -4 0 -5 4 -12 9 -15 8
-6 36 -136 29 -140 -2 -1 -21 -14 -44 -29 -42 -28 -81 -37 -67 -14 9 14 5 47
-7 62 -10 13 -19 57 -26 130 -2 32 -6 60 -7 62 -2 1 -229 -26 -505 -60 l-502
-62 0 -41 c0 -22 5 -45 11 -51 8 -8 8 -13 0 -17 -6 -4 -11 -18 -11 -31 0 -18
-4 -22 -20 -18 -18 5 -20 14 -20 78 0 64 -2 73 -20 78 -18 5 -19 11 -14 69 4
34 8 65 10 67 2 2 24 7 50 12 26 5 49 11 51 13 3 2 0 70 -6 149 -6 80 -11 175
-11 212 0 49 -4 67 -15 71 -9 4 -15 19 -15 39 0 36 -10 48 -32 40 -9 -4 -12
-18 -10 -48 5 -49 -14 -41 -20 8 -5 44 -23 36 -26 -11 -4 -49 -3 -49 -170 -60
l-112 -7 0 42 c0 22 -4 41 -10 41 -5 0 -10 -18 -10 -39 l0 -39 -72 -7 c-40 -4
-102 -5 -138 -3 l-65 3 -3 43 c-4 53 -28 52 -26 -2 l1 -36 -56 0 c-31 1 -76 6
-101 12 -25 5 -64 10 -87 9 l-43 -1 0 40 0 40 45 0 c37 0 45 3 45 19 0 16 -11
19 -81 25 -44 4 -83 6 -85 3 -8 -8 8 -37 17 -31 5 3 9 0 9 -5 0 -6 7 -11 15
-11 10 0 15 -11 15 -35 0 -34 -1 -35 -39 -35 -21 0 -65 3 -99 6 l-61 7 -3 41
c-2 34 -7 42 -25 44 -20 3 -23 -1 -23 -32 0 -42 -2 -42 -97 -21 -110 26 -105
22 -102 68 2 23 -1 43 -7 45 -5 1 -10 -16 -12 -38 -2 -22 -5 -40 -8 -40 -13 0
-216 53 -269 70 l-60 20 4 46 c2 25 -2 51 -8 57 -8 8 -11 -3 -11 -41 0 -56 -1
-57 -48 -41 -34 12 -33 2 -16 144 3 29 1 36 -6 25 -5 -8 -10 -32 -10 -52 0
-45 -2 -45 -117 26 -45 28 -109 68 -143 89 l-62 38 7 66 c5 50 4 68 -7 74 -26
17 -36 8 -44 -38 l-9 -48 -55 -2 c-41 -1 -49 1 -30 7 18 6 20 8 7 9 -10 1 -17
7 -16 14 5 37 -3 59 -21 64 -10 3 -22 14 -26 25 -6 20 -7 20 -24 2 -14 -14
-23 -58 -39 -180 -12 -89 -21 -175 -21 -191 0 -47 -13 -52 -93 -37 -100 19
-116 18 -122 -8 -9 -40 -15 -82 -21 -128 -3 -25 -9 -63 -14 -85 -15 -63 -39
-234 -44 -306 -3 -36 -10 -77 -15 -92 -10 -25 -28 -182 -23 -200 1 -4 -8 -7
-20 -8 -38 -1 -81 -10 -99 -20 -10 -5 -33 -10 -51 -10 l-33 -1 30 -8 c24 -6
19 -8 -29 -9 -90 -2 -63 -9 47 -13 83 -2 97 -5 97 -20 0 -9 6 -19 13 -21 22
-10 -16 -28 -47 -22 -16 3 -44 5 -63 5 -27 0 -34 3 -29 15 3 8 1 15 -4 15 -6
0 -10 -7 -10 -15 0 -19 -39 -28 -92 -21 -24 3 -47 5 -52 5 -5 1 -2 8 5 18 11
13 11 17 1 20 -6 3 -10 8 -7 13 8 14 -55 30 -117 30 -37 0 -57 4 -53 10 3 6
-1 10 -9 10 -9 0 -16 -5 -16 -11 0 -5 -4 -7 -10 -4 -5 3 -13 -7 -16 -22 -4
-15 -13 -33 -20 -40 -10 -10 -14 -7 -22 16 -8 23 -4 60 18 168 16 76 30 160
32 187 l3 49 -75 16 c-41 9 -75 21 -75 26 0 33 29 176 36 181 5 3 39 -4 75
-16 l65 -22 -6 -46 c-4 -31 -3 -42 3 -32 8 12 32 132 59 291 4 23 -1 28 -64
54 -37 15 -71 31 -75 34 -9 8 24 181 34 181 16 0 110 -53 114 -65 3 -7 0 -40
-5 -75 -10 -62 -6 -94 9 -70 15 24 36 2 48 -50 7 -28 12 -60 12 -71 0 -10 5
-19 10 -19 6 0 10 3 10 8 0 12 61 114 66 109 2 -2 -14 -37 -36 -76 -37 -68
-39 -76 -30 -115 5 -22 9 -61 9 -86 -1 -41 -1 -43 -9 -15 -4 17 -11 47 -14 68
-4 20 -10 37 -14 37 -7 0 -82 -143 -82 -157 0 -5 23 -8 52 -8 32 0 53 -5 55
-12 4 -10 -14 -13 -69 -13 -44 0 -68 4 -60 9 11 7 10 10 -3 15 -29 11 -35 7
-35 -25 0 -26 2 -30 15 -19 22 18 32 5 45 -63 18 -95 23 -97 61 -23 18 35 35
63 37 61 2 -1 -14 -38 -36 -81 l-39 -79 11 -75 c10 -64 15 -75 32 -78 19 -3
22 4 28 55 4 32 9 74 10 93 4 49 31 217 78 475 21 121 43 245 48 275 16 97 49
282 65 370 9 47 22 121 29 165 8 44 17 92 21 106 7 27 -15 55 -23 31 -6 -18
-99 -15 -106 3 -3 8 -17 15 -31 15 -22 0 -26 -4 -23 -22 2 -15 10 -23 23 -23
16 0 23 -12 35 -62 8 -35 18 -63 22 -63 3 0 20 24 37 53 42 72 39 51 -4 -29
-22 -40 -33 -73 -30 -84 12 -38 22 -120 15 -120 -8 0 -25 74 -40 175 -5 33
-13 71 -18 85 -10 25 -10 24 -16 -10 -3 -19 -11 -66 -16 -105 -6 -38 -13 -83
-16 -100 -4 -25 0 -22 26 23 18 28 34 52 36 52 9 0 -8 -43 -37 -92 -16 -27
-29 -53 -29 -58 0 -6 23 -10 50 -10 28 0 50 -4 50 -10 0 -17 -93 -11 -117 8
l-23 17 31 150 c20 97 27 151 21 153 -14 4 -114 83 -124 96 -3 5 -5 14 -3 20
2 6 9 36 15 66 10 53 11 55 42 54 21 -1 37 -8 46 -22 8 -12 21 -22 29 -22 10
0 0 17 -26 48 -30 37 -53 53 -92 65 -28 9 -57 17 -64 17 -9 0 -17 -26 -25 -72z
m-147 -285 c-7 -2 -19 -2 -25 0 -7 3 -2 5 12 5 14 0 19 -2 13 -5z m217 -115
c16 -13 41 -31 55 -42 29 -20 29 -21 9 -133 -5 -28 -4 -31 15 -26 24 6 35 -16
46 -90 4 -26 11 -47 15 -47 4 0 19 23 34 50 15 28 31 50 37 50 5 0 -9 -29 -31
-64 l-39 -65 15 -81 c9 -45 13 -84 11 -87 -7 -6 -27 65 -27 94 0 39 -19 35
-41 -9 -12 -24 -30 -55 -40 -70 -11 -14 -19 -29 -19 -32 0 -3 20 -6 44 -6 24
0 51 -3 60 -6 31 -12 4 -24 -55 -24 -44 0 -59 4 -59 14 0 8 -5 16 -12 18 -9 3
-6 34 11 124 13 65 27 136 31 156 l7 37 -70 42 -69 41 6 39 c11 70 28 139 33
139 3 0 18 -10 33 -22z m877 -240 c-3 -8 -6 -5 -6 6 -1 11 2 17 5 13 3 -3 4
-12 1 -19z m283 -234 c59 -31 70 -34 118 -28 35 4 57 2 67 -6 17 -14 20 -46 5
-55 -12 -8 -263 98 -268 113 -6 19 8 14 78 -24z m-177 -56 c-8 -59 -20 -78
-48 -78 -23 0 -25 4 -25 48 0 55 12 72 51 72 26 0 27 -2 22 -42z m72 -25 c-8
-80 -14 -105 -24 -99 -10 7 10 166 21 166 6 0 7 -27 3 -67z m139 -99 c3 -8 2
-12 -4 -9 -6 3 -10 10 -10 16 0 14 7 11 14 -7z m72 -27 c1 -10 -3 -14 -12 -10
-8 3 -12 8 -10 11 3 3 0 12 -7 20 -10 13 -9 14 7 5 11 -6 21 -18 22 -26z m108
-40 c-6 -62 -24 -103 -24 -56 0 54 13 128 22 123 5 -3 6 -33 2 -67z m72 -10
c5 -5 8 -97 3 -102 -3 -2 -22 0 -43 6 -32 9 -37 14 -32 32 3 12 6 35 6 51 0
27 2 28 32 22 17 -3 33 -7 34 -9z m-340 -22 c-2 -7 5 -15 17 -19 12 -3 18 -8
15 -11 -3 -4 -16 -2 -27 5 -12 6 -27 8 -33 4 -8 -5 -9 -2 -5 10 4 10 7 22 7
27 0 4 7 6 16 2 8 -3 13 -11 10 -18z m413 4 c17 -6 31 -16 31 -21 0 -6 12 -8
26 -5 25 4 26 4 22 -44 -3 -32 -1 -48 6 -46 6 2 11 20 11 40 1 44 7 51 35 42
18 -6 21 -13 18 -53 -3 -46 -4 -47 -34 -44 l-31 3 5 -54 c3 -34 0 -57 -7 -61
-6 -4 -11 -19 -11 -33 0 -24 -2 -25 -38 -20 -36 4 -39 3 -34 -19 5 -25 -4 -29
-45 -18 -24 7 -28 26 -17 82 5 23 10 29 25 25 11 -3 25 -14 32 -24 11 -15 13
-11 15 34 4 85 7 102 20 100 7 -2 12 6 12 17 0 24 -8 26 -24 6 -7 -10 -21 -13
-39 -9 -26 5 -28 9 -26 47 2 39 8 66 14 66 1 0 16 -5 34 -11z m-352 -29 c-3
-10 0 -21 7 -24 6 -2 3 -5 -6 -5 -19 -1 -22 7 -12 33 9 23 17 20 11 -4z m38 0
c3 -5 1 -10 -4 -10 -6 0 -11 5 -11 10 0 6 2 10 4 10 3 0 8 -4 11 -10z m15 -41
c0 -4 -7 -6 -15 -3 -8 4 -15 10 -15 15 0 4 7 6 15 3 8 -4 15 -10 15 -15z m80
0 c0 -11 -49 -24 -57 -15 -4 3 2 6 12 6 18 0 18 0 0 13 -16 13 -15 14 13 9 18
-2 32 -8 32 -13z m501 1 c5 0 9 -23 9 -51 0 -48 -1 -50 -22 -44 -36 11 -41 20
-33 65 5 31 11 40 22 36 8 -3 19 -6 24 -6z m-71 -21 c0 -25 -33 -22 -38 4 -2
12 3 17 17 17 15 0 21 -6 21 -21z m-796 -36 c-8 -70 -10 -73 -45 -73 -26 0
-30 3 -23 18 4 9 8 33 10 52 1 19 2 38 3 43 1 4 14 7 31 7 29 0 30 0 24 -47z
m82 -10 c-10 -89 -17 -114 -28 -107 -5 3 -7 24 -4 45 3 21 9 57 12 79 9 64 27
49 20 -17z m907 32 c39 -16 42 -21 27 -45 -8 -12 -13 -13 -30 -2 -27 17 -32
15 -25 -8 5 -15 2 -20 -14 -20 -48 0 -60 20 -45 78 7 26 20 25 87 -3z m-818 1
c13 5 16 4 11 -4 -4 -7 -2 -12 5 -12 7 0 10 -2 7 -5 -9 -9 -68 17 -62 27 4 7
9 6 14 -1 4 -7 15 -9 25 -5z m42 -28 c-3 -8 -6 -5 -6 6 -1 11 2 17 5 13 3 -3
4 -12 1 -19z m868 14 c6 -4 10 -24 11 -45 1 -36 -1 -38 -30 -35 -31 3 -32 5
-27 73 1 16 29 20 46 7z m168 -29 c18 -3 27 -12 27 -24 0 -11 -4 -19 -9 -19
-4 0 -8 -40 -9 -90 0 -59 4 -90 11 -90 7 0 7 -4 -1 -12 -7 -7 -12 -19 -12 -28
1 -9 6 -6 14 10 9 15 11 32 6 45 -7 19 -5 20 31 17 38 -4 39 -5 39 -43 0 -30
-4 -39 -17 -40 -10 -1 -25 -2 -33 -3 -11 -1 -16 -16 -18 -53 -3 -47 -1 -53 17
-54 12 -1 27 -2 34 -3 7 0 13 -19 15 -43 3 -44 -5 -50 -55 -44 -9 1 -13 -13
-13 -43 0 -37 -3 -45 -20 -48 -31 -5 -29 -20 2 -24 18 -2 31 3 38 14 9 16 9
16 10 0 0 -10 7 -18 15 -18 23 0 18 -24 -11 -55 -23 -24 -30 -27 -69 -22 -29
4 -56 1 -80 -9 l-36 -15 3 53 3 53 43 0 c27 0 42 4 42 13 0 6 -4 12 -10 12 -5
0 -10 20 -10 45 0 41 -2 45 -24 45 -23 0 -25 -4 -29 -52 l-3 -53 -2 63 c-2 54
-4 62 -21 62 -11 0 -23 5 -26 10 -10 16 -26 11 -23 -7 2 -13 -3 -17 -17 -15
-29 5 -33 13 -28 55 5 32 9 38 27 35 15 -2 21 -10 20 -25 0 -13 4 -23 10 -23
7 0 11 28 10 77 0 45 4 81 10 86 6 4 0 7 -14 6 -61 -5 -65 -2 -64 43 1 32 6
44 18 46 22 5 46 -16 39 -34 -3 -8 -1 -14 5 -14 5 0 12 11 14 25 3 14 1 25 -3
25 -14 0 -10 17 7 34 28 29 34 17 31 -63 -1 -44 1 -77 4 -75 8 4 20 -38 14
-45 -3 -2 -5 1 -5 7 0 7 -5 12 -10 12 -7 0 -7 -7 1 -21 8 -15 8 -23 0 -28 -6
-4 -9 -23 -6 -46 6 -46 15 -59 15 -22 0 22 5 27 25 27 19 0 25 6 26 23 1 12 3
36 5 54 2 26 -2 32 -19 35 -18 2 -23 11 -25 47 -3 43 -3 43 27 39 36 -5 41 3
47 85 2 34 0 57 -6 57 -9 0 -14 -13 -12 -31 1 -3 -10 -4 -23 -1 -22 4 -25 10
-25 49 0 44 1 45 28 39 15 -4 39 -10 55 -13z m-103 -14 c0 -25 -33 -22 -38 4
-2 12 3 17 17 17 15 0 21 -6 21 -21z m208 -27 l3 -43 -33 3 c-28 3 -34 7 -36
31 -5 44 4 59 35 55 25 -3 28 -7 31 -46z m170 24 c17 -6 22 -15 22 -42 0 -19
-4 -35 -10 -35 -5 -1 -16 -2 -22 -3 -8 -1 -14 -21 -16 -53 -3 -48 -1 -53 17
-53 18 0 21 -6 21 -40 0 -33 -3 -40 -20 -40 -18 0 -20 -7 -20 -54 0 -45 3 -54
20 -59 29 -7 29 -77 0 -77 -14 0 -21 -9 -25 -37 -12 -68 -13 -59 -16 87 l-3
145 -3 -117 c-2 -67 -8 -118 -13 -118 -6 0 -10 -9 -10 -21 0 -11 5 -17 10 -14
6 3 10 2 10 -4 0 -5 -8 -9 -17 -8 -14 1 -18 10 -18 41 0 39 -2 41 -32 44 -31
3 -33 6 -33 42 0 25 5 40 16 44 22 9 30 1 39 -36 8 -32 9 -31 16 22 4 30 11
70 15 88 6 32 6 32 -35 32 l-41 0 0 46 c0 44 1 46 24 42 29 -6 36 7 36 62 0
35 -3 39 -27 42 -25 3 -28 7 -31 47 l-3 44 42 -7 c24 -4 49 -12 56 -18 10 -8
13 -5 13 13 0 14 3 19 8 13 4 -6 17 -14 30 -18z m-1322 -1 c24 -18 7 -19 -26
0 -16 9 -19 14 -9 15 8 0 24 -7 35 -15z m577 -68 c-7 -72 -22 -112 -23 -56 0
56 12 129 20 124 5 -3 6 -33 3 -68z m-633 59 c0 -11 -19 -15 -25 -6 -3 5 1 10
9 10 9 0 16 -2 16 -4z m1510 -36 c0 -29 -4 -40 -15 -40 -8 0 -15 6 -16 13 0 6
-2 21 -4 31 -5 25 2 36 21 36 10 0 14 -12 14 -40z m108 -3 l3 -37 -40 0 c-40
0 -41 1 -41 33 0 42 6 49 44 44 28 -3 31 -7 34 -40z m157 33 c37 0 43 -3 47
-23 8 -41 -1 -47 -63 -47 l-59 0 0 41 c0 33 3 40 16 35 9 -3 35 -6 59 -6z
m273 3 c0 -5 1 -15 5 -23 8 -22 4 -64 -8 -72 -6 -4 -4 -12 7 -20 19 -15 37
-65 19 -54 -7 5 -9 1 -5 -8 4 -11 0 -16 -12 -16 -24 0 -39 10 -47 33 -5 13
-18 17 -54 18 -54 1 -49 5 18 14 41 5 48 9 52 33 6 27 -16 57 -33 47 -5 -3
-10 1 -13 9 -4 9 4 16 24 20 17 3 28 10 24 16 -3 5 1 10 9 10 9 0 15 -3 14 -7z
m-1940 -38 c4 -4 -7 -3 -23 1 -41 10 -75 23 -75 28 0 6 90 -20 98 -29z m1337
17 c0 -18 -20 -15 -23 4 -3 10 1 15 10 12 7 -3 13 -10 13 -16z m412 -49 c-2
-16 -4 -5 -4 22 0 28 2 40 4 28 2 -13 2 -35 0 -50z m-859 39 c2 -7 -6 -12 -17
-12 -21 0 -27 11 -14 24 9 9 26 2 31 -12z m672 9 c0 -14 -18 -23 -30 -16 -6 4
-8 11 -5 16 8 12 35 12 35 0z m-1680 -11 c0 -5 -2 -10 -4 -10 -3 0 -8 5 -11
10 -3 6 -1 10 4 10 6 0 11 -4 11 -10z m273 -57 c-6 -70 -9 -81 -19 -70 -8 8 7
137 16 137 4 0 5 -30 3 -67z m85 -1 c3 -51 3 -52 -25 -52 -45 0 -55 12 -48 56
10 62 11 63 42 55 26 -7 28 -12 31 -59z m474 26 c-7 -7 -12 -8 -12 -2 0 6 3
14 7 17 3 4 9 5 12 2 2 -3 -1 -11 -7 -17z m36 -58 c-4 -77 -28 -80 -27 -3 2
64 6 80 21 65 5 -5 8 -33 6 -62z m-738 50 c0 -5 -7 -7 -15 -4 -8 4 -15 8 -15
10 0 2 7 4 15 4 8 0 15 -4 15 -10z m960 -15 c0 -8 -4 -16 -9 -19 -5 -3 -8 5
-7 18 1 25 16 26 16 1z m367 19 c-3 -3 -12 -4 -19 -1 -8 3 -5 6 6 6 11 1 17
-2 13 -5z m2001 -18 c90 -22 123 -38 109 -52 -4 -4 -55 4 -114 17 -82 19 -109
29 -111 42 -4 22 4 21 116 -7z m-2894 8 c12 -4 16 -20 16 -55 0 -40 -3 -49
-17 -48 -21 1 -63 17 -47 18 5 1 10 16 11 35 1 32 9 56 18 56 2 0 10 -3 19 -6z
m-530 -37 c7 -19 7 -33 0 -44 -18 -30 -34 -27 -34 6 0 18 5 31 13 31 6 0 4 5
-5 11 -23 13 -23 31 -1 27 10 -2 22 -16 27 -31z m4623 1 c-3 -7 -5 -2 -5 12 0
14 2 19 5 13 2 -7 2 -19 0 -25z m-3929 -40 c2 -37 0 -48 -12 -48 -34 0 -46 12
-46 49 0 44 7 53 35 49 16 -2 21 -12 23 -50z m76 30 c3 -7 7 -30 10 -52 l5
-38 -31 6 c-17 3 -33 8 -35 10 -2 2 -1 22 3 45 5 31 11 41 26 41 10 0 20 -6
22 -12z m23 -20 c-3 -7 -5 -2 -5 12 0 14 2 19 5 13 2 -7 2 -19 0 -25z m-607
-34 c-14 -16 -34 -19 -24 -3 3 6 0 16 -7 21 -11 8 -10 8 4 4 14 -4 21 0 25 16
l7 23 3 -23 c2 -13 -2 -30 -8 -38z m3594 -10 c7 -19 -11 -17 -114 10 -59 15
-86 26 -88 38 -3 14 9 13 97 -9 57 -14 102 -31 105 -39z m-2367 24 c-3 -8 -6
-5 -6 6 -1 11 2 17 5 13 3 -3 4 -12 1 -19z m77 -51 c7 -35 -3 -51 -27 -41 -17
6 -25 63 -11 77 13 12 32 -6 38 -36z m-1001 27 c13 -13 -7 -34 -34 -34 -18 0
-32 7 -39 20 -10 18 -8 20 28 20 21 0 41 -3 45 -6z m1105 -31 c-3 -36 -5 -38
-40 -41 l-38 -3 0 40 0 41 41 0 40 0 -3 -37z m188 23 c19 -19 18 -22 -8 -31
-22 -7 -22 -8 7 -15 23 -6 15 -8 -37 -9 l-68 -1 0 35 c0 35 0 35 46 35 26 0
52 -6 60 -14z m-1776 -11 c0 -7 8 -19 18 -24 15 -9 15 -10 -5 -11 -17 0 -23 6
-23 21 0 18 -2 19 -15 9 -14 -12 -22 0 -8 13 12 12 33 7 33 -8z m3900 -1 c63
-14 90 -28 77 -40 -7 -8 -151 29 -167 43 -12 11 -12 13 3 13 10 0 49 -7 87
-16z m-3297 -4 c8 0 8 -3 0 -11 -9 -9 -16 -7 -30 7 -17 17 -17 18 0 11 10 -4
24 -7 30 -7z m-683 -20 c0 -5 -4 -10 -10 -10 -5 0 -10 5 -10 10 0 6 5 10 10
10 6 0 10 -4 10 -10z m31 -37 c-10 -17 -10 -16 -11 3 0 23 13 41 18 25 2 -6
-1 -18 -7 -28z m-168 -53 c-8 -54 -9 -55 -44 -58 -35 -3 -36 -2 -31 25 2 15 9
33 14 39 4 6 6 19 2 28 -3 9 -1 16 6 16 6 0 9 4 5 9 -3 5 7 11 22 13 34 4 36
-2 26 -72z m87 60 c0 -47 -23 -169 -31 -164 -8 5 -5 71 7 152 5 35 24 45 24
12z m4245 0 c14 -5 24 -14 21 -19 -7 -11 -126 18 -126 32 0 11 62 3 105 -13z
m-4062 -29 c-17 -17 -18 -17 -24 3 -8 30 -1 38 22 25 20 -10 20 -11 2 -28z
m403 -28 c-3 -38 -6 -69 -6 -70 0 -2 -5 -3 -11 -3 -5 0 -7 5 -4 10 3 6 1 10
-4 10 -6 0 -11 -7 -11 -15 0 -8 -3 -15 -8 -15 -4 0 -5 19 -3 43 3 26 6 33 9
20 2 -13 8 -23 13 -23 9 0 13 31 11 83 0 15 4 27 10 27 7 0 8 -23 4 -67z m134
63 c0 -3 -4 -8 -10 -11 -5 -3 -10 -1 -10 4 0 6 5 11 10 11 6 0 10 -2 10 -4z
m-304 -26 c8 0 10 -32 5 -97 -1 -9 -11 -11 -33 -6 -18 3 -35 7 -37 9 -1 1 0
26 4 54 6 47 9 51 29 46 11 -3 26 -6 32 -6z m-192 -50 c-5 -33 -9 -39 -16 -26
-6 11 -5 27 4 46 16 38 20 32 12 -20z m103 43 c-4 -3 -3 -11 3 -18 11 -14 1
-155 -12 -155 -5 0 -7 31 -4 73 l5 72 -21 -45 c-20 -40 -23 -42 -26 -21 -4 29
16 71 34 71 8 0 11 6 8 15 -4 8 -1 15 7 15 7 0 9 -3 6 -7z m185 -44 c5 -51 -5
-68 -37 -61 -27 5 -31 21 -19 79 5 25 10 29 29 25 19 -3 24 -12 27 -43z m199
10 c-9 -23 -10 -22 -10 11 -1 23 2 31 9 24 7 -7 7 -19 1 -35z m3683 21 c5 -5
8 -12 5 -14 -7 -8 -93 14 -104 26 -13 14 85 2 99 -12z m-3739 -55 c0 -43 -3
-50 -20 -50 -16 0 -21 8 -23 39 -4 49 3 68 25 64 14 -3 18 -14 18 -53z m280
-71 l-7 -126 39 3 c21 2 44 0 51 -5 16 -10 15 -56 -1 -56 -8 0 -24 -8 -35 -19
-24 -20 -70 -17 -79 5 -7 19 -63 18 -63 -1 0 -8 -4 -15 -10 -15 -10 0 -14 58
-5 82 4 9 19 12 50 10 l45 -4 0 43 c0 66 12 209 18 209 2 0 1 -57 -3 -126z
m3577 100 c17 -11 6 -24 -19 -24 -28 1 -63 20 -63 35 0 7 67 -2 82 -11z
m-3709 -36 c7 -51 3 -58 -29 -58 -22 0 -24 4 -24 50 0 46 2 50 24 50 20 0 24
-6 29 -42z m87 -14 c0 -42 -1 -44 -30 -44 -27 0 -30 3 -30 34 0 51 8 64 36 58
21 -4 24 -10 24 -48z m3535 26 c-3 -5 -12 -10 -18 -10 -7 0 -6 4 3 10 19 12
23 12 15 0z m-2660 -34 c0 -19 -3 -38 -7 -42 -5 -4 -8 11 -8 34 0 23 3 42 8
42 4 0 7 -15 7 -34z m2528 27 c-7 -2 -21 -2 -30 0 -10 3 -4 5 12 5 17 0 24 -2
18 -5z m-2689 -9 c11 -4 16 -19 16 -46 0 -35 -2 -39 -22 -36 -17 2 -24 11 -26
31 -3 28 3 57 12 57 2 0 11 -3 20 -6z m114 -41 c-3 -36 -5 -38 -40 -41 -36 -3
-38 -2 -38 27 0 21 5 31 15 31 8 0 15 5 15 10 0 6 12 10 26 10 23 0 25 -3 22
-37z m182 22 c0 -8 7 -15 15 -15 8 0 15 -9 15 -20 0 -18 -7 -20 -65 -20 -65 0
-65 0 -65 28 0 38 6 42 57 42 32 0 43 -4 43 -15z m-3057 -12 c17 -4 18 -12 11
-66 -4 -34 -7 -82 -6 -107 0 -25 -1 -39 -4 -32 -4 8 -31 12 -86 12 l-80 0 6
28 c3 15 11 62 18 105 l12 79 56 -7 c30 -3 63 -9 73 -12z m5144 -5 c-3 -8 -6
-5 -6 6 -1 11 2 17 5 13 3 -3 4 -12 1 -19z m-3277 -14 c0 -8 -4 -12 -10 -9 -5
3 -10 10 -10 16 0 5 5 9 10 9 6 0 10 -7 10 -16z m3287 -36 c-3 -7 -5 -2 -5 12
0 14 2 19 5 13 2 -7 2 -19 0 -25z m-3909 7 c6 -5 -21 -55 -30 -55 -11 0 -10
17 2 25 16 10 12 25 -5 19 -8 -4 -15 -12 -15 -19 0 -8 -4 -17 -10 -20 -6 -4
-10 8 -10 29 0 35 1 35 33 29 17 -3 33 -7 35 -8z m488 0 c-4 -24 -16 -30 -16
-7 0 12 4 22 9 22 5 0 8 -7 7 -15z m4014 7 c0 -5 -30 -10 -66 -11 -36 -1 -63
2 -60 7 7 12 126 15 126 4z m-4040 -6 c0 -3 -4 -8 -10 -11 -5 -3 -10 -1 -10 4
0 6 5 11 10 11 6 0 10 -2 10 -4z m147 -28 c-3 -7 -5 -2 -5 12 0 14 2 19 5 13
2 -7 2 -19 0 -25z m3751 27 c-2 -3 -31 -7 -63 -10 -33 -4 -62 -8 -64 -11 -5
-5 40 -7 92 -5 20 1 37 -2 37 -7 0 -13 -24 -18 -94 -21 -55 -2 -58 -1 -53 18
3 12 1 21 -4 21 -5 0 -9 5 -9 10 0 6 34 10 82 10 45 0 79 -2 76 -5z m-4301
-11 c-3 -3 -12 -4 -19 -1 -8 3 -5 6 6 6 11 1 17 -2 13 -5z m33 -4 c0 -5 -2
-10 -4 -10 -3 0 -8 5 -11 10 -3 6 -1 10 4 10 6 0 11 -4 11 -10z m1810 6 c0 -3
-4 -8 -10 -11 -5 -3 -10 -1 -10 4 0 6 5 11 10 11 6 0 10 -2 10 -4z m2635 -27
c-28 -11 -125 -11 -125 0 0 13 24 17 89 12 41 -3 51 -6 36 -12z m-3115 1 c0
-5 -2 -10 -4 -10 -3 0 -8 5 -11 10 -3 6 -1 10 4 10 6 0 11 -4 11 -10z m40 -5
c-7 -8 -16 -12 -21 -9 -13 8 -1 24 18 24 13 0 13 -3 3 -15z m2940 5 c0 -5 -4
-10 -9 -10 -6 0 -13 5 -16 10 -3 6 1 10 9 10 9 0 16 -4 16 -10z m-4283 -6 c-3
-3 -12 -4 -19 -1 -8 3 -5 6 6 6 11 1 17 -2 13 -5z m322 -19 c-8 -9 -23 -12
-37 -9 -33 9 -27 24 8 18 21 -5 30 -3 30 6 0 8 3 10 7 6 4 -3 0 -13 -8 -21z
m-392 -1 c-3 -3 -12 -4 -19 -1 -8 3 -5 6 6 6 11 1 17 -2 13 -5z m1831 -19 c-3
-3 -9 2 -12 12 -6 14 -5 15 5 6 7 -7 10 -15 7 -18z m-1715 8 c-7 -2 -19 -2
-25 0 -7 3 -2 5 12 5 14 0 19 -2 13 -5z m-1143 -23 c0 -11 -4 -20 -10 -20 -5
0 -10 9 -10 20 0 11 5 20 10 20 6 0 10 -9 10 -20z m680 16 c0 -11 -19 -15 -25
-6 -3 5 1 10 9 10 9 0 16 -2 16 -4z m60 -6 c-20 -13 -40 -13 -40 0 0 6 12 10
28 10 21 0 24 -2 12 -10z m558 -52 l-3 -53 -37 -3 -38 -3 0 49 c0 27 3 52 7
55 3 4 22 7 40 7 l34 0 -3 -52z m390 -10 c2 -34 -1 -48 -10 -48 -69 -3 -294 2
-301 7 -5 3 9 13 31 23 27 12 41 26 46 44 l7 27 112 -3 112 -3 3 -47z m746 42
c-6 -6 -21 -6 -39 -1 -30 9 -30 9 10 10 25 1 36 -2 29 -9z m-1034 -10 c13 -9
13 -10 0 -9 -8 1 -26 5 -40 9 l-25 8 25 1 c14 0 32 -4 40 -9z m895 0 c33 0 34
0 28 -37 -7 -47 -9 -49 -28 -33 -8 7 -23 9 -32 5 -20 -7 -29 -4 -25 9 2 5 -5
17 -15 28 -15 17 -15 21 -3 29 8 5 21 7 28 4 8 -3 29 -5 47 -5z m810 0 c19 -8
19 -9 -2 -9 -13 -1 -32 -10 -43 -21 -24 -24 -40 -18 -40 16 0 21 5 24 33 23
17 0 41 -4 52 -9z m-595 -20 c0 -13 -7 -20 -20 -20 -18 0 -19 3 -10 20 6 11
15 20 20 20 6 0 10 -9 10 -20z m230 -10 c0 -22 -5 -30 -18 -30 -10 0 -23 -5
-29 -11 -8 -8 -20 -6 -43 6 -29 15 -34 15 -48 1 -14 -14 -17 -13 -27 7 -6 12
-19 21 -28 21 -10 -1 -17 5 -17 17 0 17 9 19 105 19 l105 0 0 -30z m2177 -2
c-3 -7 -5 -2 -5 12 0 14 2 19 5 13 2 -7 2 -19 0 -25z m-2555 -29 c-16 -15 -17
-14 -23 5 -8 30 -1 38 21 24 18 -12 18 -13 2 -29z m-1945 9 c-3 -8 -6 -5 -6 6
-1 11 2 17 5 13 3 -3 4 -12 1 -19z m736 3 c9 0 17 -5 17 -11 0 -6 -32 -11 -72
-12 -40 -1 -55 -3 -33 -5 61 -5 86 -13 80 -23 -10 -16 11 -11 25 5 17 21 24
12 10 -14 -8 -15 -20 -21 -45 -21 -21 0 -37 -6 -43 -17 -9 -16 -11 -15 -27 1
-20 20 -52 14 -78 -16 -15 -18 -21 -19 -43 -9 -20 9 -25 17 -20 34 3 12 6 30
6 40 0 14 9 17 48 18 34 1 41 3 23 8 -14 4 -26 12 -28 18 -4 11 64 12 180 4z
m1952 -1 c8 -13 -5 -13 -25 0 -13 8 -13 10 2 10 9 0 20 -4 23 -10z m-678 -22
c-3 -8 -6 -5 -6 6 -1 11 2 17 5 13 3 -3 4 -12 1 -19z m-1680 -2 c14 -14 -12
-21 -66 -18 -53 3 -60 6 -50 18 9 11 26 13 62 10 27 -3 52 -7 54 -10z m2076
-2 c-4 -10 1 -17 16 -21 28 -7 28 -45 0 -90 -12 -20 -22 -48 -21 -64 0 -19 -4
-29 -14 -29 -16 0 -18 9 -4 30 13 21 -11 33 -26 12 -10 -14 -13 -13 -23 6 -7
13 -9 28 -4 35 4 6 8 19 8 27 4 44 6 50 20 50 8 0 15 4 15 10 0 9 30 50 37 50
1 0 0 -7 -4 -16z m604 -24 c3 -11 9 -20 14 -20 5 0 4 -9 -3 -20 -12 -19 -13
-18 -30 13 -22 40 -22 47 -2 47 9 0 18 -9 21 -20z m-404 0 c-13 -5 -23 -17
-23 -25 0 -9 -4 -13 -10 -10 -5 3 -10 15 -10 26 0 15 7 19 33 18 29 0 30 -1
10 -9z m732 -10 c-10 -11 -21 -18 -23 -15 -3 3 3 12 14 20 27 20 30 18 9 -5z
m-1768 -13 c3 -5 1 -7 -5 -3 -5 3 -12 1 -14 -5 -2 -6 -21 -12 -43 -12 -30 -2
-40 2 -40 13 0 8 8 14 18 14 9 -1 17 1 17 5 0 11 59 0 67 -12z m98 3 c3 -5 1
-10 -4 -10 -6 0 -11 5 -11 10 0 6 2 10 4 10 3 0 8 -4 11 -10z m2847 -33 c27
-35 21 -38 -11 -6 -16 16 -36 29 -45 29 -8 0 -17 4 -21 9 -12 20 61 -10 77
-32z m-5220 -9 c-6 -6 -7 0 -4 19 5 21 7 23 10 9 2 -10 0 -22 -6 -28z m4889 8
c-12 -30 -27 -33 -53 -9 -26 23 -22 32 12 31 17 -1 33 2 37 5 12 13 14 0 4
-27z m689 9 c23 -28 8 -50 -34 -50 -42 0 -64 20 -53 49 8 20 70 22 87 1z
m-2154 -17 c-5 -39 -85 -35 -86 4 0 3 9 4 19 1 11 -3 28 0 38 6 27 16 33 13
29 -11z m-115 -39 c-10 -23 -10 -23 -10 7 -1 17 2 34 7 38 11 12 14 -18 3 -45z
m-1294 35 c-3 -3 -12 -4 -19 -1 -8 3 -5 6 6 6 11 1 17 -2 13 -5z m1258 -14 c3
-5 2 -10 -4 -10 -5 0 -13 5 -16 10 -3 6 -2 10 4 10 5 0 13 -4 16 -10z m-995
-4 c0 -3 -4 -8 -10 -11 -5 -3 -10 -1 -10 4 0 6 5 11 10 11 6 0 10 -2 10 -4z
m2183 -11 c19 -8 37 -20 39 -26 3 -8 14 -5 35 11 35 26 85 24 129 -5 84 -55
58 -165 -41 -165 -41 0 -115 39 -115 61 0 6 -4 7 -10 4 -5 -3 -10 -23 -10 -43
0 -49 -20 -86 -49 -90 -21 -3 -23 -1 -19 27 3 19 0 31 -7 31 -6 0 -18 9 -28
20 -11 13 -29 20 -53 20 -32 0 -37 4 -50 38 -15 36 -17 37 -55 34 -23 -3 -39
0 -39 6 0 14 35 25 58 18 12 -4 22 4 33 27 18 37 46 45 92 26 27 -11 32 -11
41 4 6 9 11 17 12 17 1 0 17 -7 37 -15z m266 -1 c2 -2 1 -10 -3 -19 -5 -14 -8
-13 -26 2 -27 23 -25 36 3 27 12 -3 24 -8 26 -10z m-1515 -18 c14 -23 -14 -45
-49 -38 -34 6 -35 49 -2 55 31 6 39 3 51 -17z m-931 -3 c18 -10 -1 -26 -33
-29 -19 -2 -46 -6 -59 -9 -19 -5 -22 -3 -17 10 3 9 6 19 6 21 0 2 12 4 26 4
15 0 23 4 19 10 -6 10 37 4 58 -7z m717 7 c0 -15 -28 -32 -35 -20 -3 6 -11 8
-16 5 -11 -8 -31 4 -25 14 6 10 76 11 76 1z m-2682 -39 c2 -11 10 -21 18 -21
8 0 14 -4 14 -10 0 -6 -28 -10 -65 -10 -61 0 -65 1 -65 23 0 29 11 44 35 49
31 7 60 -7 63 -31z m1476 15 c-3 -9 -10 -16 -15 -16 -14 0 -11 28 4 33 16 6
19 3 11 -17z m543 2 c-3 -8 -6 -5 -6 6 -1 11 2 17 5 13 3 -3 4 -12 1 -19z
m1659 -6 c33 -38 30 -48 -16 -50 -32 -2 -43 3 -56 23 -33 50 31 74 72 27z
m-2546 9 c0 -10 26 -9 36 2 19 19 29 4 26 -35 l-4 -42 -20 27 c-14 19 -29 27
-49 27 -28 0 -37 9 -22 23 9 10 33 8 33 -2z m4165 -18 c7 -29 -13 -53 -45 -53
-22 0 -60 28 -60 46 0 8 -9 14 -20 14 -11 0 -20 5 -20 10 0 6 30 10 69 10 67
0 69 -1 76 -27z m-3662 3 c13 0 17 -9 17 -44 0 -26 -4 -41 -10 -37 -5 3 -10
15 -10 25 0 10 -13 27 -29 36 -31 18 -32 41 -2 28 9 -4 24 -7 34 -8z m2930
-43 c21 -170 21 -173 -3 -173 -16 0 -21 4 -16 16 6 15 4 15 -11 3 -9 -8 -14
-9 -10 -2 4 6 3 23 -3 38 -8 20 -7 31 1 41 9 12 9 13 -4 9 -34 -14 -45 55 -15
91 35 39 54 32 61 -23z m39 -9 c-3 -42 0 -60 14 -75 9 -10 13 -19 9 -19 -5 0
-4 -5 3 -12 16 -16 15 -31 0 -22 -10 6 -10 4 0 -7 18 -20 15 -31 -10 -27 -20
3 -24 12 -34 88 -17 121 -17 130 4 130 14 0 17 -8 14 -56z m-3537 6 c-4 -19
-14 -43 -22 -52 -10 -11 -12 -18 -4 -18 8 0 8 -6 -1 -21 -10 -17 -10 -23 0
-26 17 -7 15 -23 -4 -23 -8 0 -13 -4 -10 -8 2 -4 1 -14 -4 -22 -7 -12 -10 -12
-16 3 -3 9 -17 17 -30 17 -14 0 -24 6 -24 15 0 7 -7 18 -15 23 -13 6 -14 14
-6 35 6 16 7 29 1 32 -5 3 -7 12 -3 20 3 9 0 22 -7 30 -21 25 -3 32 75 31 l76
-1 -6 -35z m168 14 c-7 -18 -33 -18 -33 -1 0 19 10 27 25 20 8 -2 11 -11 8
-19z m142 16 c3 -5 1 -10 -4 -10 -6 0 -11 5 -11 10 0 6 2 10 4 10 3 0 8 -4 11
-10z m205 -9 c0 -5 -7 -12 -16 -15 -22 -9 -24 -8 -24 9 0 8 9 15 20 15 11 0
20 -4 20 -9z m1120 -11 c0 -5 -25 -10 -55 -10 -30 0 -55 5 -55 10 0 6 25 10
55 10 30 0 55 -4 55 -10z m203 -3 c2 -6 -2 -18 -9 -25 -8 -7 -14 -8 -14 -3 0
6 -6 8 -14 5 -19 -7 -32 16 -15 27 20 13 46 11 52 -4z m-1008 -44 c-4 -17 -10
-22 -16 -16 -6 6 -6 20 2 39 13 34 24 16 14 -23z m-1920 11 c20 -20 15 -35
-16 -53 -56 -32 -108 17 -57 53 29 20 52 20 73 0z m1789 -10 c3 -8 2 -12 -4
-9 -6 3 -10 10 -10 16 0 14 7 11 14 -7z m3426 6 c0 -5 -4 -10 -10 -10 -5 0
-10 5 -10 10 0 6 5 10 10 10 6 0 10 -4 10 -10z m120 0 c0 -5 -22 -10 -50 -10
-27 0 -50 5 -50 10 0 6 23 10 50 10 28 0 50 -4 50 -10z m-3735 -20 c-31 -7
-45 -4 -45 9 0 4 17 5 38 2 l37 -5 -30 -6z m2349 5 c-5 -12 -10 -13 -20 -4
-19 15 -18 19 6 19 13 0 18 -5 14 -15z m-1084 -38 c0 -6 -9 -2 -20 8 -11 10
-20 23 -20 28 0 6 9 2 20 -8 11 -10 20 -23 20 -28z m2480 13 c0 -5 -19 -10
-42 -10 -33 0 -39 -3 -30 -12 7 -7 30 -18 50 -24 l37 -12 -54 -1 c-30 -1 -51
2 -48 6 4 3 2 12 -4 19 -21 26 -2 44 46 44 25 0 45 -4 45 -10z m-3596 -9 c3
-4 -6 -13 -19 -19 -17 -8 -26 -8 -31 -1 -3 6 -13 8 -21 5 -17 -7 -36 2 -28 13
6 11 93 13 99 2z m-284 -16 c0 -8 -9 -15 -20 -15 -17 0 -19 -2 -8 -14 7 -8 15
-10 16 -5 2 5 17 9 32 9 16 0 33 7 37 15 7 12 14 13 38 4 29 -11 30 -15 31
-70 1 -55 -1 -59 -21 -59 -18 0 -25 -9 -34 -44 -10 -40 -34 -66 -45 -48 -2 4
-7 30 -11 57 -8 60 -24 94 -26 55 -2 -29 -2 -21 11 -103 5 -36 7 -73 4 -82 -6
-14 -8 -14 -23 -1 -11 10 -21 12 -31 6 -23 -15 -28 -12 -45 21 l-17 31 34 -6
c31 -6 32 -6 10 7 -17 10 -20 15 -10 25 9 9 7 12 -11 12 -13 0 -29 -7 -35 -16
-11 -14 -17 -12 -59 16 -51 34 -63 60 -54 116 7 40 -1 43 -33 9 -12 -13 -26
-22 -31 -19 -4 2 -17 -6 -28 -18 -21 -22 -21 -22 -21 -1 0 26 -30 40 -31 15 0
-14 -2 -14 -6 -2 -3 8 -11 18 -17 22 -14 9 -5 17 24 23 13 3 26 8 29 12 3 5
18 14 34 20 15 7 27 17 27 23 0 14 63 0 73 -16 6 -10 15 -9 43 8 29 17 44 19
94 14 37 -4 61 -3 65 4 9 14 15 12 15 -5z m-1470 -14 c0 -6 -17 -11 -37 -13
-50 -4 -57 -28 -8 -28 21 0 34 -4 30 -10 -3 -5 -35 -10 -71 -10 -41 0 -63 4
-59 10 3 6 15 10 26 10 12 0 19 7 19 19 0 11 8 22 18 24 32 9 82 7 82 -2z
m450 -14 c0 -16 -29 -27 -72 -27 -17 0 -28 5 -28 13 0 20 6 23 55 26 33 1 45
-2 45 -12z m4289 -36 c11 -7 9 -10 -8 -16 -24 -7 -44 2 -36 16 8 11 26 11 44
0z m189 2 c-10 -2 -26 -2 -35 0 -10 3 -2 5 17 5 19 0 27 -2 18 -5z m407 -23
c6 -29 15 -37 28 -23 4 3 2 12 -5 20 -12 15 -5 28 11 18 19 -11 13 -53 -10
-60 -32 -10 -79 13 -79 40 0 46 45 50 55 5z m-1507 -5 l23 -22 -35 1 c-37 2
-62 18 -53 33 10 16 41 11 65 -12z m-2088 5 c0 -5 -18 -10 -39 -10 -22 0 -43
5 -46 10 -4 6 12 10 39 10 25 0 46 -4 46 -10z m-1757 -14 c3 -8 0 -22 -8 -32
-7 -10 -11 -24 -8 -30 2 -7 -6 -19 -19 -28 -18 -13 -19 -16 -5 -16 9 0 17 -4
17 -10 0 -5 -17 -10 -39 -10 -21 0 -53 -3 -71 -7 -25 -5 -32 -3 -28 8 3 8 11
14 19 15 8 0 25 2 38 2 24 2 24 2 5 16 -10 8 -16 18 -12 22 4 4 14 2 22 -5 20
-17 71 6 55 26 -9 9 -8 13 0 13 6 0 11 8 11 18 -1 13 -5 11 -21 -10 -22 -30
-38 -35 -57 -16 -7 7 -8 17 -1 30 13 24 32 23 24 -2 -4 -11 -2 -20 4 -20 6 0
11 7 11 15 0 28 54 46 63 21z m4418 -58 c1 -95 3 -106 30 -129 26 -23 36 -25
19 -4 -18 22 -6 29 27 17 17 -7 21 -11 10 -11 -14 -1 -15 -4 -5 -20 13 -22 -3
-51 -29 -51 -8 0 -11 -4 -8 -10 9 -14 -7 -12 -29 5 -14 11 -23 12 -32 4 -16
-13 -50 -3 -58 17 -3 9 0 25 8 36 10 14 12 28 5 51 -5 18 -9 55 -9 84 0 42 4
55 22 67 41 29 48 21 49 -56z m181 61 c21 -10 103 -137 94 -146 -2 -2 -22 2
-45 9 -39 12 -41 15 -41 54 0 26 -7 48 -20 62 -31 33 -27 39 12 21z m-394 -51
c6 -14 15 -47 18 -72 6 -44 6 -46 -19 -46 -31 0 -37 15 -37 92 0 64 14 74 38
26z m366 -54 c2 -16 2 -24 -1 -19 -2 6 -25 12 -50 13 -55 2 -67 11 -55 42 6
15 11 19 16 12 12 -19 26 -14 38 13 l12 26 18 -29 c10 -16 20 -42 22 -58z
m-694 57 c0 -9 -24 -21 -41 -21 -5 0 -9 7 -9 15 0 9 9 15 25 15 14 0 25 -4 25
-9z m1544 -31 c10 -10 -17 -25 -61 -35 -40 -8 -45 10 -5 20 l27 8 -32 13 c-53
22 -47 34 9 18 29 -9 57 -19 62 -24z m-1614 20 c0 -5 -7 -10 -15 -10 -8 0 -15
5 -15 10 0 6 7 10 15 10 8 0 15 -4 15 -10z m1272 -18 c-6 -2 -12 -16 -13 -30
l-1 -27 -8 25 c-13 42 -12 49 12 42 12 -3 17 -7 10 -10z m-5392 -29 c0 -5 -5
-15 -10 -23 -9 -13 -10 -13 -11 0 0 10 -3 8 -9 -5 -5 -12 -9 -14 -9 -6 -1 11
-5 10 -16 -5 -14 -18 -14 -18 -15 7 0 14 3 29 7 32 9 9 63 9 63 0z m30 -5 c0
-9 4 -8 10 2 11 17 13 10 4 -14 -5 -13 -8 -13 -20 -1 -16 16 -18 25 -4 25 6 0
10 -6 10 -12z m37 -10 c-3 -8 -6 -5 -6 6 -1 11 2 17 5 13 3 -3 4 -12 1 -19z
m332 10 c28 -6 51 -16 51 -23 0 -11 -130 -58 -138 -50 -10 9 10 23 43 29 49
10 51 22 5 30 -22 3 -40 11 -40 16 0 13 17 13 79 -2z m3566 -20 c14 -6 25 -15
25 -20 0 -15 -30 -21 -45 -8 -8 7 -15 9 -15 4 0 -11 -20 18 -20 29 0 11 25 9
55 -5z m-3715 -38 c47 0 29 -13 -24 -17 -40 -4 -43 -2 -40 19 4 34 4 34 18 16
8 -11 27 -18 46 -18z m3790 26 c0 -3 -4 -8 -10 -11 -5 -3 -10 -1 -10 4 0 6 5
11 10 11 6 0 10 -2 10 -4z m1710 -6 c0 -5 -18 -10 -40 -10 -66 0 -48 -29 25
-41 38 -6 37 -7 -16 -8 -51 -1 -57 1 -63 22 -11 43 -8 47 44 47 28 0 50 -4 50
-10z m-4290 -10 c0 -5 -5 -10 -11 -10 -5 0 -7 5 -4 10 3 6 8 10 11 10 2 0 4
-4 4 -10z m2755 0 l-20 -8 20 -8 c19 -8 19 -8 -5 -15 -29 -8 -102 -10 -82 -2
18 7 15 23 -5 24 -25 2 45 16 82 17 25 0 27 -1 10 -8z m715 -7 c0 -7 -9 -13
-20 -13 -19 0 -26 11 -15 22 10 10 35 4 35 -9z m70 -3 c11 -7 9 -11 -14 -19
-31 -12 -46 -7 -46 15 0 16 37 19 60 4z m-3345 -20 c0 -7 -6 -15 -12 -17 -8
-3 -13 4 -13 17 0 13 5 20 13 18 6 -3 12 -11 12 -18z m-1217 -35 c5 -25 -36
-64 -76 -71 -46 -9 -78 20 -63 58 9 24 38 44 49 33 3 -3 -3 -14 -12 -24 -31
-34 8 -56 55 -31 20 11 27 40 9 40 -5 0 -10 7 -10 15 0 21 44 3 48 -20z m1600
24 c14 0 13 -2 -3 -9 -31 -13 -45 -11 -45 6 0 11 5 14 16 10 9 -3 23 -6 32 -7z
m1956 2 c4 -5 -3 -7 -14 -4 -23 6 -26 13 -6 13 8 0 17 -4 20 -9z m379 2 c-7
-2 -21 -2 -30 0 -10 3 -4 5 12 5 17 0 24 -2 18 -5z m-4108 -38 c0 -26 -5 -31
-37 -39 -26 -7 -41 -6 -51 3 -33 26 10 72 63 68 21 -2 25 -7 25 -32z m4168 4
c-11 -12 -27 -19 -34 -17 -9 3 -3 11 16 21 40 22 43 21 18 -4z m124 9 c28 -45
-1 -49 -36 -5 -12 15 -11 17 7 17 12 0 24 -6 29 -12z m813 -14 c0 -8 -5 -12
-10 -9 -6 4 -8 11 -5 16 9 14 15 11 15 -7z m-3300 1 c0 -3 -7 -16 -15 -28 -9
-14 -14 -42 -12 -74 2 -54 -6 -74 -23 -57 -14 14 -2 46 14 38 6 -3 3 1 -7 9
-14 11 -15 17 -6 23 9 5 6 10 -9 15 -27 10 -28 33 -2 59 18 18 60 28 60 15z
m3660 -12 c0 -27 16 -47 30 -38 8 5 9 10 1 18 -14 14 -14 27 -1 27 14 0 31
-37 24 -54 -7 -18 -55 -21 -83 -6 -25 13 -34 39 -20 56 16 20 49 18 49 -3z
m-5859 -15 l2 -23 4 23 c2 12 9 22 14 22 5 0 6 -12 3 -27 -8 -33 -10 -36 -29
-39 -11 -2 -15 8 -15 32 0 37 19 48 21 12z m3602 -33 c9 -13 13 -26 9 -29 -11
-7 -27 5 -41 32 -17 31 8 29 32 -3z m-1903 -17 c37 -41 40 -62 7 -45 -42 22
-79 56 -72 67 11 18 35 10 65 -22z m-1354 12 c50 0 42 -23 -13 -40 l-48 -14
43 -9 c23 -4 42 -12 42 -17 0 -8 -122 -50 -144 -50 -22 0 11 19 51 30 l48 13
-42 10 c-24 5 -43 14 -43 18 0 5 18 14 40 20 49 15 52 29 5 29 -19 0 -35 5
-35 11 0 8 11 9 31 5 17 -3 47 -6 65 -6z m4004 -26 c0 -21 -20 -37 -20 -16 0
4 -3 17 -6 30 -5 18 -3 21 10 16 9 -3 16 -17 16 -30z m210 -29 c0 -3 -8 -5
-19 -5 -24 0 -52 31 -33 37 6 3 12 12 12 21 0 11 8 4 20 -16 11 -18 20 -35 20
-37z m533 59 c43 -8 46 -15 13 -30 -19 -9 -31 -8 -55 4 -56 27 -37 39 42 26z
m-4376 -26 c-3 -8 -6 -5 -6 6 -1 11 2 17 5 13 3 -3 4 -12 1 -19z m2538 4 c-3
-3 -11 0 -18 7 -9 10 -8 11 6 5 10 -3 15 -9 12 -12z m-2717 -4 c7 -7 12 -18
12 -26 0 -18 -38 -52 -59 -53 -9 0 -33 -2 -53 -5 -29 -4 -38 -1 -38 11 0 10
10 15 33 16 89 3 120 39 33 39 -52 0 -73 11 -43 23 24 10 103 7 115 -5z m-531
-20 c-3 -8 -6 -5 -6 6 -1 11 2 17 5 13 3 -3 4 -12 1 -19z m677 -46 c-4 -34
-11 -62 -17 -62 -5 0 -7 10 -4 23 4 12 9 41 13 65 10 63 15 45 8 -26z m325 51
c22 -19 19 -33 -8 -33 -26 0 -44 23 -29 38 15 15 14 15 37 -5z m271 1 c0 -9
-5 -14 -12 -12 -18 6 -21 28 -4 28 9 0 16 -7 16 -16z m-382 -21 c-2 -22 -9
-29 -30 -31 -16 -2 -28 2 -28 8 0 24 22 50 41 50 16 0 20 -5 17 -27z m5027 17
c4 -6 -13 -10 -44 -10 -27 0 -53 5 -56 10 -4 6 13 10 44 10 27 0 53 -4 56 -10z
m-5269 -65 c-4 -25 -11 -45 -15 -45 -4 0 -3 22 3 50 12 61 21 58 12 -5z m1641
48 c-14 -4 -17 -11 -12 -34 6 -26 4 -29 -18 -29 -20 0 -26 6 -29 30 -4 25 -1
30 21 33 36 6 60 6 38 0z m3013 -10 c0 -3 -7 -15 -17 -25 -17 -19 -73 -25 -73
-8 0 6 8 10 19 10 10 0 24 7 31 15 13 15 40 21 40 8z m-1156 -28 c4 -14 4 -30
1 -35 -8 -12 -50 4 -49 19 1 6 2 18 3 26 2 26 38 17 45 -10z m144 -3 c3 -19
-1 -23 -15 -20 -10 2 -19 14 -21 26 -3 19 1 23 15 20 10 -2 19 -14 21 -26z
m1637 7 c8 -8 18 -30 21 -48 l7 -34 -48 6 c-26 4 -60 7 -76 7 -24 0 -29 5 -35
34 -3 19 -3 39 0 44 9 15 115 7 131 -9z m-5310 -29 c-9 -41 -17 -33 -9 9 4 17
9 30 11 27 3 -2 2 -19 -2 -36z m4825 13 c25 -32 21 -49 -11 -45 -28 5 -25 2
-33 29 -6 18 -4 22 8 17 9 -3 16 -1 16 4 0 6 -8 13 -17 15 -16 4 -16 5 -1 6 9
0 26 -11 38 -26z m-4290 -3 c0 -6 -52 -30 -66 -30 -15 0 1 22 23 34 28 14 43
13 43 -4z m3506 -18 c-10 -2 -22 2 -27 10 -16 24 -9 29 18 11 23 -15 24 -18 9
-21z m397 18 c-3 -11 -7 -20 -9 -20 -2 0 -4 9 -4 20 0 11 4 20 9 20 5 0 7 -9
4 -20z m-4463 -15 c0 -14 -4 -25 -9 -25 -4 0 -6 11 -3 25 2 14 6 25 8 25 2 0
4 -11 4 -25z m-615 -5 c3 -5 1 -10 -4 -10 -6 0 -11 5 -11 10 0 6 2 10 4 10 3
0 8 -4 11 -10z m582 -22 c-3 -7 -5 -2 -5 12 0 14 2 19 5 13 2 -7 2 -19 0 -25z
m1057 -10 c-4 -24 -7 -49 -7 -55 0 -7 -4 -13 -9 -13 -4 0 -8 -7 -8 -15 0 -22
-33 -19 -47 4 -11 17 -9 21 15 29 25 10 25 10 5 11 -24 1 -27 10 -17 48 4 15
15 23 38 26 17 2 33 5 34 5 2 1 0 -17 -4 -40z m656 18 c0 -2 -3 -11 -6 -20 -9
-23 -34 -20 -34 4 0 13 7 20 20 20 11 0 20 -2 20 -4z m2780 -11 c0 -8 -2 -15
-4 -15 -2 0 -6 7 -10 15 -3 8 -1 15 4 15 6 0 10 -7 10 -15z m-3816 -1 c26 -10
18 -32 -16 -50 l-32 -16 25 -14 c13 -7 18 -13 12 -14 -7 0 -13 -6 -13 -14 0
-20 -44 -28 -74 -14 -33 14 -33 22 2 35 l27 11 -27 1 c-39 1 -35 23 9 54 38
27 58 32 87 21z m-544 -14 c0 -5 -5 -10 -11 -10 -5 0 -7 5 -4 10 3 6 8 10 11
10 2 0 4 -4 4 -10z m5628 -101 c-3 -8 -7 -3 -11 10 -4 17 -3 21 5 13 5 -5 8
-16 6 -23z m-4298 17 c0 -2 -9 -6 -20 -9 -11 -3 -18 -1 -14 4 5 9 34 13 34 5z
m3585 -56 c3 -5 2 -10 -4 -10 -5 0 -13 5 -16 10 -3 6 -2 10 4 10 5 0 13 -4 16
-10z m-3745 -9 c0 -13 -37 -24 -51 -15 -8 4 -7 9 2 15 19 12 49 11 49 0z
m4278 -18 c-10 -2 -26 -2 -35 0 -10 3 -2 5 17 5 19 0 27 -2 18 -5z m-5308 -13
c-20 -5 -39 -5 -44 1 -6 5 7 9 35 8 l44 -1 -35 -8z m170 0 c0 -5 -12 -10 -27
-9 l-28 1 25 8 c14 4 26 8 28 9 1 1 2 -3 2 -9z m5060 0 c0 -5 -9 -10 -21 -10
-11 0 -17 5 -14 10 3 6 13 10 21 10 8 0 14 -4 14 -10z"/>
<path d="M490 2379 c0 -23 -7 -80 -16 -127 -8 -46 -13 -86 -11 -88 3 -3 19 20
37 51 32 55 32 56 20 125 -14 80 -30 101 -30 39z"/>
<path d="M2002 1690 c0 -14 2 -19 5 -12 2 6 2 18 0 25 -3 6 -5 1 -5 -13z"/>
<path d="M2425 1520 c3 -5 8 -10 11 -10 2 0 4 5 4 10 0 6 -5 10 -11 10 -5 0
-7 -4 -4 -10z"/>
<path d="M5738 1013 c-24 -6 -23 -20 3 -34 15 -8 24 -8 32 0 15 15 -11 39 -35
34z"/>
<path d="M4525 862 c3 -7 5 -17 5 -21 0 -5 14 -8 30 -9 23 0 30 4 30 18 0 13
-9 19 -35 22 -27 3 -34 1 -30 -10z"/>
<path d="M4630 849 c13 -6 28 -15 32 -22 5 -8 8 -4 8 11 0 18 -5 22 -32 21
-32 0 -32 -1 -8 -10z"/>
<path d="M463 913 c-7 -2 -13 -9 -13 -14 0 -15 53 -6 58 9 4 12 -21 15 -45 5z"/>
<path d="M5750 905 c0 -9 7 -18 15 -21 23 -9 45 3 39 21 -8 20 -54 20 -54 0z"/>
<path d="M453 833 c-7 -3 -13 -11 -13 -20 0 -17 41 -14 47 3 4 13 -16 23 -34
17z"/>
<path d="M5800 686 c0 -8 5 -18 10 -21 6 -3 10 1 10 9 0 8 -4 18 -10 21 -5 3
-10 -1 -10 -9z"/>
<path d="M4865 460 c3 -5 8 -10 11 -10 2 0 4 5 4 10 0 6 -5 10 -11 10 -5 0 -7
-4 -4 -10z"/>
<path d="M373 453 c-7 -2 -13 -11 -13 -19 0 -22 54 -14 58 9 3 17 -17 22 -45
10z"/>
<path d="M5867 424 c-8 -8 3 -34 14 -34 11 0 12 27 0 34 -4 3 -11 3 -14 0z"/>
<path d="M5862 268 c2 -15 11 -24 25 -26 18 -3 22 0 16 15 -13 36 -46 45 -41
11z"/>
<path d="M5920 276 c0 -29 13 -46 35 -46 19 0 22 4 17 23 -8 34 -52 54 -52 23z"/>
<path d="M2482 2659 c2 -7 10 -15 17 -17 8 -3 12 1 9 9 -2 7 -10 15 -17 17 -8
3 -12 -1 -9 -9z"/>
<path d="M3780 2456 l-75 -22 -3 -74 c-4 -111 10 -216 28 -211 8 2 45 9 83 17
37 7 71 15 75 18 11 6 -11 289 -23 292 -5 1 -44 -7 -85 -20z"/>
<path d="M6370 2352 c-8 -3 -76 -23 -150 -44 -74 -21 -115 -36 -90 -33 25 3
81 16 125 29 44 14 95 27 113 31 17 4 32 11 32 16 0 10 -8 10 -30 1z"/>
<path d="M5940 2230 c-69 -21 -120 -39 -115 -39 20 -2 255 64 255 72 0 10 1
10 -140 -33z"/>
<path d="M6338 2239 c-31 -9 -59 -14 -62 -11 -3 2 -8 -3 -12 -12 -4 -10 1 -25
11 -36 12 -14 16 -28 12 -49 -4 -17 -3 -32 1 -35 4 -2 31 1 60 6 42 9 52 15
52 30 0 16 -5 19 -25 14 -14 -4 -25 -2 -25 4 0 5 9 10 20 10 25 0 32 17 28 62
l-3 34 -57 -17z m37 -39 c-27 -12 -35 -12 -35 0 0 6 12 10 28 9 24 0 25 -1 7
-9z"/>
<path d="M3937 2233 c-3 -5 -5 -32 -5 -60 -1 -41 3 -53 15 -53 9 0 13 6 10 14
-3 7 -1 18 5 24 6 6 7 16 2 24 -5 7 -7 20 -6 30 3 17 -13 33 -21 21z"/>
<path d="M1840 2196 c0 -9 3 -15 8 -14 4 0 14 -2 22 -5 8 -3 24 -7 35 -9 14
-3 19 -10 17 -26 -2 -17 1 -20 13 -16 9 4 14 13 11 20 -7 18 3 18 23 0 17 -14
71 -30 71 -20 0 3 -7 12 -15 20 -8 9 -15 13 -15 10 0 -4 -102 28 -152 49 -13
5 -18 2 -18 -9z"/>
<path d="M6060 2183 c-19 -8 -52 -18 -75 -22 -47 -8 -56 -31 -31 -79 12 -24
26 -32 66 -42 28 -7 53 -11 55 -9 2 2 -4 24 -12 47 -8 24 -12 46 -9 49 3 3 8
-3 12 -13 14 -44 24 -64 34 -64 13 0 13 41 0 74 -6 17 -6 26 0 26 6 0 13 -14
17 -30 3 -17 10 -33 14 -36 17 -10 21 27 9 71 -14 50 -23 53 -80 28z"/>
<path d="M5755 2180 c-7 -12 12 -12 40 0 18 8 17 9 -7 9 -15 1 -30 -3 -33 -9z"/>
<path d="M5500 2110 c-20 -6 -21 -8 -5 -8 11 0 31 4 45 8 20 6 21 8 5 8 -11 0
-31 -4 -45 -8z"/>
<path d="M2046 2095 c-3 -9 0 -15 9 -15 16 0 20 16 6 24 -5 3 -11 -1 -15 -9z"/>
<path d="M3923 2085 c-3 -9 -3 -19 1 -22 3 -4 6 -1 6 5 0 7 6 12 14 12 8 0 18
5 21 10 3 6 -3 10 -15 10 -11 0 -23 -7 -27 -15z"/>
<path d="M5420 2090 c-20 -6 -21 -8 -5 -8 11 0 29 3 40 8 25 11 -1 11 -35 0z"/>
<path d="M2128 2063 c6 -2 18 -2 25 0 6 3 1 5 -13 5 -14 0 -19 -2 -12 -5z"/>
<path d="M2439 2044 c8 -30 31 -45 31 -21 0 8 7 17 15 21 10 3 15 -1 15 -12 0
-15 2 -15 10 -2 8 13 10 12 10 -4 0 -11 3 -16 7 -13 3 4 12 2 20 -5 11 -8 12
-7 7 5 -7 20 24 17 36 -4 8 -12 12 -12 25 2 15 15 11 18 -52 32 -137 32 -133
32 -124 1z"/>
<path d="M4120 2038 l-45 -21 55 -18 c30 -10 58 -19 63 -19 4 0 7 18 7 40 0
47 -11 49 -80 18z"/>
<path d="M5280 2050 c-20 -6 -21 -8 -5 -8 11 0 29 3 40 8 25 11 -1 11 -35 0z"/>
<path d="M2235 2043 c11 -3 24 -11 28 -19 6 -11 12 -11 28 -1 19 12 19 12 -3
19 -13 3 -34 6 -48 6 -20 0 -21 -1 -5 -5z"/>
<path d="M3675 2030 c-3 -5 -1 -10 4 -10 6 0 11 5 11 10 0 6 -2 10 -4 10 -3 0
-8 -4 -11 -10z"/>
<path d="M2328 2023 c6 -2 18 -2 25 0 6 3 1 5 -13 5 -14 0 -19 -2 -12 -5z"/>
<path d="M3908 2020 c-2 -6 0 -59 4 -118 4 -59 9 -165 13 -237 3 -71 8 -138
11 -149 4 -10 2 -16 -2 -13 -5 3 -10 -5 -10 -17 l-2 -22 87 18 c47 9 97 18
111 19 21 1 22 2 5 6 -29 7 -45 32 -45 69 0 32 1 33 38 27 126 -21 147 -28
150 -50 2 -13 8 -23 13 -23 5 0 7 10 4 23 -2 12 -12 105 -20 207 -15 179 -25
238 -25 150 0 -43 0 -43 -32 -37 -18 3 -58 12 -90 21 l-56 17 -7 49 c-4 28
-10 50 -13 50 -18 -1 -27 -19 -27 -55 0 -37 -2 -40 -30 -43 -22 -2 -26 0 -16
7 11 7 12 13 4 23 -15 19 -22 68 -10 68 19 0 -3 14 -27 17 -14 2 -26 -1 -28
-7z m332 -257 c5 -4 12 -25 15 -45 8 -45 12 -44 -100 -19 l-80 17 -3 46 -3 46
82 -18 c45 -10 85 -22 89 -27z m-208 -3 c3 -34 1 -40 -15 -40 -41 0 -62 56
-27 72 30 13 38 7 42 -32z m16 -202 c2 -26 -1 -38 -10 -39 -7 0 -24 -2 -37 -5
-20 -4 -22 -2 -12 10 7 8 8 17 3 20 -7 4 -8 33 -3 54 1 2 13 2 29 0 23 -3 27
-8 30 -40z"/>
<path d="M406 1894 c-10 -70 -20 -133 -23 -141 -3 -7 -1 -13 3 -13 5 0 24 29
42 64 33 64 33 65 21 128 -6 35 -15 69 -19 76 -3 7 -14 -44 -24 -114z"/>
<path d="M2388 2013 c7 -3 16 -2 19 1 4 3 -2 6 -13 5 -11 0 -14 -3 -6 -6z"/>
<path d="M3558 2013 c7 -3 16 -2 19 1 4 3 -2 6 -13 5 -11 0 -14 -3 -6 -6z"/>
<path d="M5135 2010 l-20 -9 20 0 c11 0 27 4 35 9 13 9 13 10 0 9 -8 0 -24 -4
-35 -9z"/>
<path d="M3332 1989 c2 -7 10 -15 17 -17 8 -3 12 1 9 9 -2 7 -10 15 -17 17 -8
3 -12 -1 -9 -9z"/>
<path d="M3648 1993 c7 -3 16 -2 19 1 4 3 -2 6 -13 5 -11 0 -14 -3 -6 -6z"/>
<path d="M5051 1989 c-18 -6 -31 -12 -29 -14 2 -3 24 1 49 9 49 16 33 20 -20
5z"/>
<path d="M3593 1983 c9 -2 23 -2 30 0 6 3 -1 5 -18 5 -16 0 -22 -2 -12 -5z"/>
<path d="M3700 1950 c0 -5 5 -10 10 -10 6 0 10 5 10 10 0 6 -4 10 -10 10 -5 0
-10 -4 -10 -10z"/>
<path d="M3040 1910 c0 -5 5 -10 10 -10 6 0 10 5 10 10 0 6 -4 10 -10 10 -5 0
-10 -4 -10 -10z"/>
<path d="M4391 1904 c0 -11 3 -14 6 -6 3 7 2 16 -1 19 -3 4 -6 -2 -5 -13z"/>
<path d="M4412 1830 c0 -19 2 -27 5 -17 2 9 2 25 0 35 -3 9 -5 1 -5 -18z"/>
<path d="M4422 1740 c0 -25 3 -70 8 -100 6 -47 7 -49 8 -15 0 22 -4 67 -8 100
-6 55 -7 56 -8 15z"/>
<path d="M340 1575 c0 -17 -9 -86 -21 -154 -11 -68 -18 -126 -15 -129 4 -3 7
-3 9 -1 24 40 75 147 72 150 -2 3 -9 36 -15 74 -12 75 -30 110 -30 60z"/>
<path d="M4435 1570 c-3 -5 -1 -10 4 -10 6 0 11 5 11 10 0 6 -2 10 -4 10 -3 0
-8 -4 -11 -10z"/>
<path d="M357 1345 c-15 -30 -27 -58 -27 -60 0 -3 18 -5 39 -5 l39 0 -5 43
c-11 80 -16 82 -46 22z"/>
<path d="M641 1384 c0 -11 3 -14 6 -6 3 7 2 16 -1 19 -3 4 -6 -2 -5 -13z"/>
<path d="M275 1259 c-4 -6 -5 -12 -2 -15 2 -3 7 2 10 11 7 17 1 20 -8 4z"/>
<path d="M4841 1254 c0 -11 3 -14 6 -6 3 7 2 16 -1 19 -3 4 -6 -2 -5 -13z"/>
<path d="M260 1210 c0 -5 5 -10 11 -10 5 0 7 5 4 10 -3 6 -8 10 -11 10 -2 0
-4 -4 -4 -10z"/>
<path d="M718 1163 c7 -3 16 -2 19 1 4 3 -2 6 -13 5 -11 0 -14 -3 -6 -6z"/>
<path d="M778 1163 c7 -3 16 -2 19 1 4 3 -2 6 -13 5 -11 0 -14 -3 -6 -6z"/>
<path d="M2860 920 c0 -11 4 -20 8 -20 4 0 8 9 8 20 0 11 -4 20 -8 20 -4 0 -8
-9 -8 -20z"/>
<path d="M2640 905 c0 -8 3 -15 8 -15 4 0 6 -20 4 -45 -3 -26 -8 -42 -14 -39
-5 3 -7 18 -4 33 5 22 4 23 -5 8 -5 -10 -11 -31 -11 -48 -1 -33 -37 -59 -81
-59 -24 0 -24 -2 -29 -116 -5 -105 1 -176 16 -191 12 -13 79 -7 87 7 4 8 11
86 15 172 l6 157 34 7 35 6 -6 47 c-9 63 -11 68 -34 81 -17 9 -21 8 -21 -5z"/>
<path d="M2855 859 c-4 -6 -13 -8 -20 -5 -8 3 -15 -9 -20 -37 -5 -23 -7 -46
-6 -50 1 -5 -3 -6 -8 -3 -5 3 -17 -6 -26 -21 -13 -20 -19 -53 -22 -122 -2 -53
-9 -127 -15 -165 -10 -60 -17 -76 -53 -113 -44 -45 -46 -49 -14 -33 16 9 19 7
19 -14 0 -17 -7 -27 -22 -32 l-23 -7 25 -9 c13 -5 29 -7 36 -4 8 3 11 -3 8
-20 -2 -13 -1 -24 4 -24 5 0 17 -18 28 -40 19 -40 54 -56 54 -24 0 17 82 104
99 104 6 0 11 5 11 10 0 6 -4 10 -10 10 -5 0 -10 7 -10 15 0 8 7 15 16 15 11
0 3 13 -25 40 -50 49 -56 69 -56 200 0 90 3 111 22 145 27 49 58 85 71 85 6 0
10 9 9 20 -1 12 -8 20 -19 20 -17 0 -22 10 -19 39 2 8 -2 10 -10 5 -9 -5 -10
-2 -6 9 7 19 -8 23 -18 6z m-90 -486 c5 -19 2 -23 -14 -23 -21 0 -26 15 -15
45 8 19 19 10 29 -22z"/>
<path d="M4000 763 c-36 -9 -86 -12 -145 -10 -85 4 -88 4 -50 -9 43 -13 176
-18 238 -8 27 5 37 11 37 25 0 22 -5 22 -80 2z"/>
<path d="M3724 623 c3 -91 9 -140 20 -161 19 -36 88 -98 145 -130 l42 -24 -6
109 c-9 163 -10 167 -51 186 -41 20 -132 103 -145 132 -6 13 -8 -29 -5 -112z"/>
<path d="M3770 705 c35 -38 84 -66 138 -79 l47 -12 9 -132 c9 -134 17 -152 46
-117 9 11 11 41 6 113 -10 140 -15 162 -37 162 -46 0 -122 24 -176 56 -53 32
-56 33 -33 9z"/>
<path d="M2350 694 c-12 -4 -16 -19 -17 -59 -1 -30 3 -55 8 -55 5 0 9 9 9 21
0 11 5 17 10 14 6 -4 10 12 10 39 0 25 -1 45 -2 45 -2 -1 -10 -3 -18 -5z"/>
<path d="M2300 559 c-13 -9 -13 -10 0 -6 8 2 20 -3 26 -11 9 -13 12 -12 17 7
6 23 -16 29 -43 10z"/>
<path d="M3915 270 c-8 -13 5 -13 25 0 13 8 13 10 -2 10 -9 0 -20 -4 -23 -10z"/>
<path d="M3908 215 c-15 -19 -15 -25 -4 -34 12 -10 16 -6 21 19 9 40 4 44 -17
15z"/>
<path d="M578 123 c12 -2 32 -2 45 0 12 2 2 4 -23 4 -25 0 -35 -2 -22 -4z"/>
<path d="M3180 100 c0 -5 23 -10 50 -10 28 0 50 5 50 10 0 6 -22 10 -50 10
-27 0 -50 -4 -50 -10z"/>
<path d="M1978 3 c23 -2 61 -2 85 0 23 2 4 4 -43 4 -47 0 -66 -2 -42 -4z"/>
</g>
</svg>
